# xmcd
#
# Track frame offsets:
#	150
#	45965
#	68097
#	112546
#	136148
#
# Disc length: 2122 seconds
#
# Revision: 1
# Processed by: cddbd v1.5.2PL0 Copyright (c) Steve Scherf et al.
# Submitted via: audiograbber 1.83.01
#
DISCID=30084805
DTITLE=Grateful Dead - 82-10-09 Frost Amphitheatre, Palo Alto CA
DYEAR=1900
DGENRE=
TTITLE0=Truckin
TTITLE1=The Other One
TTITLE2=Morning Dew
TTITLE3=One More Saturday Night
TTITLE4=US Blues
EXTD=
EXTT0=
EXTT1=
EXTT2=
EXTT3=
EXTT4=
PLAYORDER=
